<svg version="1" xmlns="http://www.w3.org/2000/svg" width="682.667" height="682.667" viewBox="0 0 512.000000 512.000000"><path d="M34.9 168.4c-.5.4-.6 6.5 0 7.4.3.6 2.9 1.7 5.6 2.4 2.8.7 5.2 1.6 5.5 1.9.3.4.5 35.3.5 77.5l-.1 76.9-5.4 1.6c-5.4 1.6-5.5 1.7-5.8 5.8l-.3 4.1H93v-8.7l-5.2-1.2-5.3-1.1.1-43.3c.1-23.7.2-43.7.3-44.3.2-1.7 11.4-4.5 17.7-4.5 9 0 14.5 4.5 16.9 13.6.8 3.2 1.1 16.1 1.1 41.3l-.1 36.7-5 1.6c-4.9 1.5-5 1.7-5.3 5.7l-.3 4.2 29.2-.2 29.3-.3.2-3c.2-4.6-.3-5.1-6.2-6.4l-5.4-1.2v-9.6c0-24.4-.8-75-1.2-76.3-2.6-8.7-3.7-10.9-7.3-14.6-7.9-7.9-18.1-10.3-34.1-7.9-4.9.7-19.4 6.3-26 9.9l-4.1 2.3.2-34.8c.1-19.2-.1-35-.4-35-.6-.2-47-.6-47.2-.5zM255 226.6c-8.2 1.6-12.5 3.2-22.8 8.2l-8.2 4-.6-4.9c-.4-2.7-.9-5-1.3-5-.3-.1-10.6-.2-22.8-.3l-22.3-.1v4.2c0 4.1.1 4.2 4.3 5.3 2.3.6 4.9 1.4 5.6 1.8 1.3.7 1.5 7.7 1.6 46.3 0 25-.2 46.3-.6 47.3-.3 1.1-1.7 2.1-3.3 2.3-6.2.9-7.6 2-7.6 6.3v4h57.8l.4-3.5c.5-4.2-.3-5-6.3-6.6l-4.4-1.2v-43.4c0-40.1.2-43.5 1.8-44.4 3.6-2.1 11.4-3.9 16.7-3.9 7.3 0 11.5 2.6 14.3 8.8 2.1 4.5 2.2 6 2.3 43.9l.1 39.1-5.1 1.4c-5 1.4-5.1 1.5-5.4 5.6l-.3 4.2h58.6l-.1-3.3c-.2-5.3-.3-5.5-3.1-6-4.3-.8-7.5-1.6-7.9-2-.2-.2-.5-20-.7-44l-.2-43.6 6.5-2.1c15.3-4.9 24.6-1.4 27.9 10.5.7 2.6 1.1 17.2 1.1 41.6v37.6l-5.2 1.5c-5.2 1.4-5.3 1.5-5.3 5.4v3.9l29.3.3 29.3.2-.3-4.2-.3-4.2-5.7-1.4-5.8-1.4v-41.2c0-43.9-.3-47.1-5.1-55.6-1.3-2.2-4.3-5.4-6.8-7.1-12.8-8.4-30.9-6.9-53.5 4.6-9.5 4.9-10.6 5.2-10.6 3.2 0-1.7-6.7-8.1-10.5-9.9-6.8-3.4-15.9-4.1-25.5-2.2zM427.7 225.6c-.1.1-2 .4-4.2.7-13.8 1.7-25.5 10.1-30.4 21.9-3 7.2-2.5 21.2 1.1 28.8 5 11.1 12.4 16.4 32.4 23.6 20.5 7.4 24.7 10.7 24.7 19.9 0 6.7-4 12.3-10.8 15-3.5 1.3-14.3 1.4-19.4 0-5.2-1.3-14.4-6-16.2-8.1-.5-.6-2-4.7-3.2-9.1l-2.3-7.8-4.2-.3-4.2-.3V326c0 18.5-1.2 16.7 12.2 19.4 32.1 6.5 54.9 2.1 66.3-12.9 5.3-6.9 7.9-21.1 5.9-32-1-5.8-4.9-13.1-9.2-17.1-5.2-4.9-11.9-8.3-26.2-13.3-18.6-6.5-23.8-10.5-24.6-18.5-.3-3.8 3.2-10.4 6.6-12.1 6.6-3.4 18-2.6 27.6 2 5.4 2.6 6.3 4 8.4 12.2l1.4 5.3h8.6v-15c0-8.3-.2-15-.4-15s-2.5-.4-5.2-.9c-8.5-1.6-33.6-3.4-34.7-2.5z"/></svg>